# xmcd
#
# Track frame offsets: 
#        182
#        13370
#        29842
#        39915
#        57260
#        74157
#        85787
#        97327
#        110460
#        126500
#
# Disc length: 1898 seconds
#
# Revision: 8
# Processed by: cddbd v1.5.2PL0 Copyright (c) Steve Scherf et al.
# Submitted via: ExactAudioCopy v0.95b4
#
DISCID=9707680a
DTITLE=Hank Williams, Jr. - Greatest Hits - Vol. 2
DYEAR=1994
DGENRE=Country
TTITLE0=All My Rowdy Friends Are Coming Over Tonight
TTITLE1=Man Of Steel
TTITLE2=Honky Tonkin'
TTITLE3=The Conversation
TTITLE4=Queen Of My Heart
TTITLE5=Two Old Cats Like Us
TTITLE6=Gonna Go Huntin' Tonight
TTITLE7=Attitude Adjustment
TTITLE8=Major Moves
TTITLE9=Leave Them Boys Alone
EXTD=
EXTT0=
EXTT1=
EXTT2=
EXTT3=
EXTT4=
EXTT5=
EXTT6=
EXTT7=
EXTT8=
EXTT9=
PLAYORDER=
